<svg xmlns="http://www.w3.org/2000/svg" xmlns:xlink="http://www.w3.org/1999/xlink" width="394" height="386"><g><svg xmlns="http://www.w3.org/2000/svg" xmlns:xlink="http://www.w3.org/1999/xlink" width="394" height="386"/><svg xmlns="http://www.w3.org/2000/svg" width="394" height="386" version="1.0"><g fill="#fefeff" transform="matrix(.1 0 0 -.1 0 386)"><path d="M1460 3545c-283-48-480-265-480-526 0-41-5-70-12-76s-53-13-103-16c-191-11-343-111-435-288-51-98-70-179-70-303 0-122 18-199 76-327l44-97-40-78c-55-108-80-213-80-338 0-119 16-193 66-294 88-181 277-302 471-302 75 0 83-10 83-97 0-184 125-373 303-457 113-53 191-69 317-63s199 25 304 77c43 22 86 40 96 40s53-18 96-40c44-22 106-47 139-56 90-24 256-29 337-10 262 61 447 273 448 509 0 87 8 97 83 97 194 0 383 121 471 302 50 101 66 175 66 294 0 126-25 230-80 338l-41 79 35 71c62 129 78 190 83 321 6 146-10 224-67 334-92 177-244 277-435 288-49 3-96 10-102 16-8 6-13 35-13 76 0 272-208 488-510 530-139 20-312-15-449-91l-61-33-61 33c-82 45-156 70-264 87-104 17-115 17-215 0zm223-250c119-31 195-86 228-164 24-57 42-71 89-71s65 14 89 71c23 55 59 92 124 125 210 108 464 42 544-143 50-114-11-346-140-538-87-129-156-206-318-354-252-230-346-230-598 0-256 234-376 401-446 619-63 199-22 341 123 418 99 53 198 65 305 37zm-610-642c78-24 78-24 125-100 118-189 265-357 426-487 108-87 216-198 216-221 0-24-16-51-80-135-187-245-450-452-665-525-81-27-201-44-247-33-97 21-179 95-220 197-31 78-31 222 0 301 40 101 77 149 137 176 62 28 85 55 85 97 0 33-40 77-70 77-11 0-37 16-58 34-112 102-153 319-88 461 83 182 214 229 439 158zm2153 2c166-81 223-342 117-537-31-58-95-118-123-118-30 0-70-44-70-77 0-42 23-69 85-97 60-27 97-75 137-176 31-79 31-223 0-301-41-102-123-176-220-197-46-11-167 6-247 33-73 25-218 102-284 150-154 113-318 280-415 423-47 68-47 70-33 99 25 48 104 130 202 208 162 130 309 298 426 488 46 73 48 75 113 97 139 46 225 47 312 5zm-1175-993c15-9 54-52 87-94 139-175 293-314 472-425 110-69 129-96 156-232 13-67 14-94 6-137-26-128-133-219-286-244-163-26-364 61-397 171-16 52-42 74-89 74s-73-22-89-74c-33-111-248-202-404-171-151 29-253 119-279 244-8 43-7 70 6 137 27 136 46 163 156 232 183 114 334 251 481 437 39 49 76 91 82 94 26 10 73 5 98-12z"/></g></svg></g></svg>